<svg width="82" height="82" viewBox="0 0 82 82" fill="none" xmlns="http://www.w3.org/2000/svg">
<g clip-path="url(#clip0_30_2)">
<path d="M31.992 40.1342H50.0723C51.7902 40.1342 53.188 38.7363 53.188 37.0184V21.6531C53.188 19.9352 51.7902 18.5374 50.0723 18.5374H31.992C30.2741 18.5374 28.8763 19.9352 28.8763 21.6531V37.0184C28.8763 38.7363 30.2741 40.1342 31.992 40.1342ZM31.7088 21.6531C31.7088 21.4996 31.8385 21.3698 31.992 21.3698H50.0723C50.2258 21.3698 50.3555 21.4996 50.3555 21.6531V37.0184C50.3555 37.172 50.2258 37.3017 50.0723 37.3017H31.992C31.8385 37.3017 31.7088 37.172 31.7088 37.0184V21.6531Z" fill="#B1B1B1"/>
<path d="M31.2445 49.998H33.1372C34.3107 49.998 35.2615 49.0471 35.2615 47.8736C35.2615 46.7001 34.3107 45.7493 33.1372 45.7493H31.2445C30.071 45.7493 29.1201 46.7001 29.1201 47.8736C29.1201 49.0471 30.0713 49.998 31.2445 49.998Z" fill="#B1B1B1"/>
<path d="M51.2563 45.7493H49.5149C48.3414 45.7493 47.3905 46.7001 47.3905 47.8736C47.3905 49.0471 48.3414 49.998 49.5149 49.998H51.2563C52.4298 49.998 53.3806 49.0471 53.3806 47.8736C53.3806 46.7001 52.4295 45.7493 51.2563 45.7493Z" fill="#B1B1B1"/>
<path d="M34.2288 52.4421H31.2445C30.071 52.4421 29.1201 53.393 29.1201 54.5665C29.1201 55.74 30.071 56.6909 31.2445 56.6909H34.2288C35.4023 56.6909 36.3532 55.74 36.3532 54.5665C36.3532 53.3933 35.4023 52.4421 34.2288 52.4421Z" fill="#B1B1B1"/>
<path d="M42.7424 52.4421H39.7584C38.5849 52.4421 37.634 53.393 37.634 54.5665C37.634 55.74 38.5849 56.6909 39.7584 56.6909H42.7424C43.9159 56.6909 44.8668 55.74 44.8668 54.5665C44.8668 53.3933 43.9159 52.4421 42.7424 52.4421Z" fill="#B1B1B1"/>
<path d="M51.2563 52.4421H48.272C47.0985 52.4421 46.1476 53.393 46.1476 54.5665C46.1476 55.74 47.0985 56.6909 48.272 56.6909H51.2563C52.4298 56.6909 53.3806 55.74 53.3806 54.5665C53.3806 53.3933 52.4295 52.4421 51.2563 52.4421Z" fill="#B1B1B1"/>
<path d="M34.2288 59.5806H31.2445C30.071 59.5806 29.1201 60.5314 29.1201 61.7049C29.1201 62.8784 30.071 63.8293 31.2445 63.8293H34.2288C35.4023 63.8293 36.3532 62.8784 36.3532 61.7049C36.3532 60.5317 35.4023 59.5806 34.2288 59.5806Z" fill="#B1B1B1"/>
<path d="M42.7424 59.5806H39.7584C38.5849 59.5806 37.634 60.5314 37.634 61.7049C37.634 62.8784 38.5849 63.8293 39.7584 63.8293H42.7424C43.9159 63.8293 44.8668 62.8784 44.8668 61.7049C44.8668 60.5317 43.9159 59.5806 42.7424 59.5806Z" fill="#B1B1B1"/>
<path d="M51.2563 59.5806H48.272C47.0985 59.5806 46.1476 60.5314 46.1476 61.7049C46.1476 62.8784 47.0985 63.8293 48.272 63.8293H51.2563C52.4298 63.8293 53.3806 62.8784 53.3806 61.7049C53.3806 60.5317 52.4295 59.5806 51.2563 59.5806Z" fill="#B1B1B1"/>
<path d="M81.267 73.2257C77.8943 67.2511 69.8614 62.3495 59.147 59.6983V32.4023V29.3358V22.292C59.147 12.9437 51.8672 6.66268 41.0321 6.66268C35.1732 6.66268 30.3568 8.50209 27.1657 11.6674V2.65585C27.1657 1.48236 26.2149 0.531494 25.0414 0.531494C23.8679 0.531494 22.917 1.48236 22.917 2.65585V22.292V32.4023V59.6983C12.6762 62.2342 4.79878 66.8792 1.2208 72.5184C0.115846 74.2604 -0.549503 77.0886 0.60105 79.1807C1.07096 80.0355 2.25295 81.469 4.88886 81.469H75.3179C78.9202 81.469 80.5639 79.9491 81.308 78.6739C82.4467 76.7235 81.9975 74.5198 81.267 73.2257ZM41.0321 10.9114C47.4287 10.9114 54.8983 13.8917 54.8983 22.292V29.3358V32.4023V65.2457C54.8983 65.6295 54.5739 65.9538 54.1901 65.9538H27.8739C27.4901 65.9538 27.1657 65.6295 27.1657 65.2457V32.4023V22.292C27.1657 13.892 34.6356 10.9114 41.0321 10.9114ZM77.6385 76.5314C77.3867 76.9625 76.5191 77.2203 75.3176 77.2203H4.88857C4.47985 77.2203 4.33369 77.139 4.32746 77.139C4.14873 76.8841 4.25523 75.6667 4.80841 74.7949C7.69499 70.2448 14.2386 66.392 22.917 64.0847V65.246C22.917 67.9793 25.1408 70.2028 27.8739 70.2028H54.1901C56.9235 70.2028 59.147 67.9793 59.147 65.246V64.0855C68.0956 66.4747 74.9083 70.6042 77.5669 75.314C77.7521 75.6418 77.832 76.2003 77.6385 76.5314Z" fill="#B1B1B1"/>
<path d="M41.2505 42.2524C38.8242 42.2524 36.85 44.2267 36.85 46.653C36.85 49.0793 38.8242 51.0535 41.2505 51.0535C43.6768 51.0535 45.6508 49.0793 45.6508 46.653C45.6508 44.2267 43.6768 42.2524 41.2505 42.2524ZM41.2505 48.221C40.3858 48.221 39.6825 47.5177 39.6825 46.653C39.6825 45.7882 40.3858 45.0849 41.2505 45.0849C42.115 45.0849 42.8183 45.7882 42.8183 46.653C42.8183 47.5175 42.1147 48.221 41.2505 48.221Z" fill="#B1B1B1"/>
</g>
<defs>
<clipPath id="clip0_30_2">
<rect width="82" height="82" fill="white"/>
</clipPath>
</defs>
</svg>
